<?xml version="1.0" encoding="utf-8"?>
<!-- Generator: Adobe Illustrator 21.1.0, SVG Export Plug-In . SVG Version: 6.00 Build 0)  -->
<svg version="1.1" id="Слой_1" xmlns="http://www.w3.org/2000/svg" xmlns:xlink="http://www.w3.org/1999/xlink" x="0px" y="0px"
	 viewBox="0 0 100 100" style="enable-background:new 0 0 100 100;" xml:space="preserve">
<g>
	<path d="M86.7,79.1c-0.4-2.3-0.8-4.3-1.2-6.1c-0.8-3.7-1.3-5.4-2.8-7.1c-1.6-1.7-3.3-2.3-6-3.2c-2.9-1-5.3-1.5-8.3-2.1
		c-0.6-0.1-1.1-0.2-1.6-0.3c-3.6-0.7-5-1-6.1-2.3c-0.2-0.2-0.3-0.4-0.4-0.6v-3.6c3.7-3.1,7.1-7.6,8.9-12.8c2.4-0.5,4.6-2.6,5.8-5.6
		c1.7-4.4,0.5-8.9-2.6-10.3c-0.1-0.1-0.3-0.1-0.4-0.2c0.2-2.8,0.5-14-7.7-20.4c-4.7-3.7-10-4.1-12.2-4.2c-2.6-0.2-11.4-0.8-17.9,5.7
		c-6.8,6.8-5.9,16.2-5.5,19c-0.1,0-0.3,0.1-0.4,0.2c-3.1,1.4-4.2,5.9-2.6,10.3c1.3,3.3,3.9,5.6,6.5,5.7c1.7,5,4.9,9.1,8.2,12.1v4.2
		c-0.1,0.2-0.3,0.4-0.4,0.6c-1.1,1.3-2.6,1.7-6.1,2.3c-0.5,0.1-1,0.2-1.6,0.3c-3,0.6-5.4,1-8.3,2.1c-2.6,0.9-4.4,1.6-6,3.2
		c-1.6,1.7-2.1,3.4-2.8,7.1c-0.4,1.9-0.8,3.9-1.2,6.3l-0.1,0.6l0.4,0.5c8.2,11.8,21.7,18.9,36.1,18.9c14.5,0,28-7.1,36.3-19.1
		l0.4-0.5L86.7,79.1z M47.5,68.7l-1.7,2.4c-0.1,0.1-0.1,0.1-0.1,0.1c0,0-0.1,0-0.1-0.1l-7-8.6l2.4-0.7L47.5,68.7z M43.1,73
		c0.7,0.8,1.6,1.3,2.6,1.3c0,0,0,0,0.1,0c1,0,2-0.5,2.6-1.4l1.9-2.6l1.9,2.6c0.6,0.9,1.6,1.4,2.6,1.4c0,0,0,0,0.1,0
		c1,0,1.9-0.5,2.6-1.3l8.1-9.9c0.2,0,0.4,0.1,0.6,0.1c0.1,0,0.2,0,0.3,0.1c-2.3,5.8-5.1,11.9-8.4,18.4c-2.6,4.9-5.2,9.4-7.8,13.6
		c-2.6-4.2-5.2-8.7-7.8-13.6c-3.4-6.4-6.1-12.6-8.4-18.4c0.1,0,0.2,0,0.3-0.1c0.2,0,0.4-0.1,0.6-0.1L43.1,73z M59.5,61.9l2.3,0.9
		l-6.8,8.3c0,0.1-0.1,0.1-0.1,0.1c0,0-0.1,0-0.1-0.1L53,68.7L59.5,61.9z M34.4,39.2L34.1,38l-1.2,0.2c-1.6,0.3-3.7-1.4-4.7-3.9
		c-1.1-2.9-0.6-6.1,1.2-6.9c0.8-0.4,1.6-0.1,2.1,0.2l1.7,0.9l0.1-0.9c0.1-0.3,0.2-0.6,0.3-1c1.7-4.6,4.6-7.8,7.2-10.1
		c1.9,1.6,4.7,3.6,8.4,5.2c2.6,1.1,5,1.8,6.9,2.2c-0.6-0.4-1.4-1.1-2.1-2.2c-0.7-1-1.1-2-1.3-2.6c2,0.3,4.7,0.9,7.6,2.5
		c1.3,0.7,3.8,2,6.1,4.6c0.6,0.7,1.1,1.3,1.4,1.8c0,0,0,0,0,0l0,0l1.6-0.6c0.6-0.2,1.2-0.2,1.7,0c1.8,0.8,2.3,4,1.2,6.9
		c-1,2.6-2.9,4-4.3,4l-1,0l-0.3,1C63.7,49.5,54,55.8,50.6,55.8C47.4,55.8,37.4,49.1,34.4,39.2z M50.6,58.5c1.8,0,4.1-0.9,6.6-2.5V58
		l0.1,0.3c0.1,0.3,0.3,0.6,0.4,0.8L50.3,67l-7.5-7.8c0.2-0.3,0.3-0.5,0.5-0.8l0.1-0.3v-2.5C46.2,57.4,48.9,58.5,50.6,58.5z"/>
	<circle cx="50.3" cy="78" r="1.7"/>
	<circle cx="50.3" cy="84.9" r="1.7"/>
</g>
</svg>
